<?xml version="1.0" encoding="UTF-8" standalone="no"?>
<!DOCTYPE svg PUBLIC "-//W3C//DTD SVG 1.1//EN"
 "http://www.w3.org/Graphics/SVG/1.1/DTD/svg11.dtd">
<!-- Generated by graphviz version 2.47.0 (20210316.0004)
 -->
<!-- Title: dependencies Pages: 1 -->
<svg width="504pt" height="279pt"
 viewBox="0.00 0.00 504.00 279.00" xmlns="http://www.w3.org/2000/svg" xmlns:xlink="http://www.w3.org/1999/xlink">
<g id="graph0" class="graph" transform="scale(1 1) rotate(0) translate(4 275)">
<title>dependencies</title>
<polygon fill="white" stroke="transparent" points="-4,4 -4,-275 500,-275 500,4 -4,4"/>
<text text-anchor="start" x="227.01" y="-42.4" font-family="Times-12" font-weight="bold" font-size="14.00">Legend</text>
<polygon fill="#ffffb3" stroke="transparent" points="14,-10 14,-30 34,-30 34,-10 14,-10"/>
<text text-anchor="start" x="37.63" y="-15.4" font-family="Times-12" font-size="14.00"> &#160;Declarations</text>
<polygon fill="#8dd3c7" stroke="transparent" points="127,-10 127,-30 147,-30 147,-10 127,-10"/>
<text text-anchor="start" x="150.73" y="-15.4" font-family="Times-12" font-size="14.00"> &#160;Module</text>
<polygon fill="#80b1d3" stroke="transparent" points="213,-10 213,-30 233,-30 233,-10 213,-10"/>
<text text-anchor="start" x="236.78" y="-15.4" font-family="Times-12" font-size="14.00"> &#160;Bootstrap</text>
<polygon fill="#fdb462" stroke="transparent" points="310,-10 310,-30 330,-30 330,-10 310,-10"/>
<text text-anchor="start" x="333.67" y="-15.4" font-family="Times-12" font-size="14.00"> &#160;Providers</text>
<polygon fill="#fb8072" stroke="transparent" points="406,-10 406,-30 426,-30 426,-10 406,-10"/>
<text text-anchor="start" x="429.73" y="-15.4" font-family="Times-12" font-size="14.00"> &#160;Exports</text>
<g id="clust1" class="cluster">
<title>cluster_AppModule</title>
<polygon fill="none" stroke="black" stroke-dasharray="1,5" points="95,-70 95,-263 241,-263 241,-70 95,-70"/>
</g>
<g id="clust3" class="cluster">
<title>cluster_AppModule_imports</title>
<polygon fill="none" stroke="black" points="129,-146 129,-198 233,-198 233,-146 129,-146"/>
</g>
<g id="clust6" class="cluster">
<title>cluster_AppModule_providers</title>
<polygon fill="none" stroke="black" points="103,-78 103,-130 233,-130 233,-78 103,-78"/>
</g>
<g id="clust7" class="cluster">
<title>cluster_newsModule</title>
<polygon fill="none" stroke="black" stroke-dasharray="1,5" points="249,-70 249,-138 401,-138 401,-70 249,-70"/>
</g>
<g id="clust12" class="cluster">
<title>cluster_newsModule_providers</title>
<polygon fill="none" stroke="black" points="257,-78 257,-130 393,-130 393,-78 257,-78"/>
</g>
<!-- newsModule -->
<g id="node1" class="node">
<title>newsModule</title>
<polygon fill="#8dd3c7" stroke="black" points="225.32,-190 222.32,-194 201.32,-194 198.32,-190 136.68,-190 136.68,-154 225.32,-154 225.32,-190"/>
<text text-anchor="middle" x="181" y="-167.8" font-family="Times,serif" font-size="14.00">newsModule</text>
</g>
<!-- AppModule -->
<g id="node2" class="node">
<title>AppModule</title>
<polygon fill="#8dd3c7" stroke="black" points="204.66,-255 201.66,-259 180.66,-259 177.66,-255 121.34,-255 121.34,-219 204.66,-219 204.66,-255"/>
<text text-anchor="middle" x="163" y="-232.8" font-family="Times,serif" font-size="14.00">AppModule</text>
</g>
<!-- newsModule&#45;&gt;AppModule -->
<g id="edge1" class="edge">
<title>newsModule&#45;&gt;AppModule</title>
<path fill="none" stroke="black" d="M170.84,-190.11C170.84,-190.11 170.84,-208.99 170.84,-208.99"/>
<polygon fill="black" stroke="black" points="167.34,-208.99 170.84,-218.99 174.34,-208.99 167.34,-208.99"/>
</g>
<!-- AppService -->
<g id="node3" class="node">
<title>AppService</title>
<ellipse fill="#fdb462" stroke="black" cx="168" cy="-104" rx="56.74" ry="18"/>
<text text-anchor="middle" x="168" y="-99.8" font-family="Times,serif" font-size="14.00">AppService</text>
</g>
<!-- AppService&#45;&gt;newsModule -->
<g id="edge3" class="edge">
<title>AppService&#45;&gt;newsModule</title>
<path fill="none" stroke="black" d="M180.73,-121.87C180.73,-121.87 180.73,-143.54 180.73,-143.54"/>
<polygon fill="black" stroke="black" points="177.23,-143.54 180.73,-153.54 184.23,-143.54 177.23,-143.54"/>
</g>
<!-- AppService&#45;&gt;AppModule -->
<g id="edge2" class="edge">
<title>AppService&#45;&gt;AppModule</title>
<path fill="none" stroke="black" d="M129.01,-117.24C129.01,-117.24 129.01,-208.76 129.01,-208.76"/>
<polygon fill="black" stroke="black" points="125.51,-208.76 129.01,-218.76 132.51,-208.76 125.51,-208.76"/>
</g>
<!-- newsService -->
<g id="node4" class="node">
<title>newsService</title>
<ellipse fill="#fdb462" stroke="black" cx="325" cy="-104" rx="59.67" ry="18"/>
<text text-anchor="middle" x="325" y="-99.8" font-family="Times,serif" font-size="14.00">newsService</text>
</g>
<!-- newsService&#45;&gt;newsModule -->
<g id="edge4" class="edge">
<title>newsService&#45;&gt;newsModule</title>
<path fill="none" stroke="black" d="M325,-122.22C325,-142.37 325,-172 325,-172 325,-172 235.38,-172 235.38,-172"/>
<polygon fill="black" stroke="black" points="235.38,-168.5 225.38,-172 235.38,-175.5 235.38,-168.5"/>
</g>
</g>
</svg>
